 <svg xmlns="http://www.w3.org/2000/svg" viewBox="0 0 14.00 14.00" role="img" focusable="false"
    aria-hidden="true" fill="#ffffff" stroke="#ffffff" stroke-width="0.00014" id="svgcontent" width="1024"
    height="1024" x="721.0499985625793" y="142.04999856257925">
    <defs></defs>
    <g style="pointer-events:all">
      <title style="pointer-events:inherit">Layer 1</title>
      <rect x="1.271354374758689" y="1.1537831021531717" width="11.463972911158143" height="11.43274316479763" rx="2.8"
        fill="#187fff" strokewidth="0" id="svg_1" stroke="null"></rect>
      <g id="SVGRepo_tracerCarrier" stroke-linecap="round" stroke-linejoin="round" stroke="#ffffffCCCCCC"
        stroke-width="0.028000000000000004" style="pointer-events:inherit"></g>
      <g id="SVGRepo_iconCarrier" stroke="null">
        <path
          d="M8.102874824041702,5.600202393257482 C8.03776632202434,5.600202393257482 7.983414159673098,5.621496621664537 7.940010782681686,5.663270545151597 L3.289381894679895,10.139329676986486 C3.245985390748972,10.181103600473548 3.22385413597267,10.23341169866921 3.22385413597267,10.296076006308741 C3.22385413597267,10.358733469130396 3.245985390748972,10.411048412143934 3.289381894679895,10.452822335630996 L4.005382971177186,11.14194490958322 C4.048786348168599,11.183718833070282 4.103138510519841,11.205013061477334 4.168247012537204,11.205013061477334 C4.233348641494078,11.205013061477334 4.286738575376784,11.183718833070282 4.330141952368197,11.14194490958322 L8.981733068838524,6.664961727335294 C9.025129572769446,6.623187803848233 9.047260827545749,6.571796911247729 9.047260827545749,6.509139448426074 C9.047260827545749,6.44648198560442 9.025136445829935,6.394167042590883 8.981733068838524,6.352393119103822 L8.26573199234123,5.663270545151597 C8.222328615349818,5.621496621664537 8.167976452998573,5.600202393257482 8.102874824041702,5.600202393257482 zM8.102874824041702,6.051891924784798 L8.490261132413355,6.423811948804623 L7.430235886172886,7.444045742609891 L7.042842704740745,7.072125718590067 L8.102874824041702,6.051891924784798 z"
          id="svg_2" stroke="null"></path>
        <path fill="#ffffff187fff"
          d="M4.475039813608571,3.839352460631373 L4.948463093188219,3.983682290329587 L4.475039813608571,4.1280121200277975 L4.330121333186728,4.599490020029815 L4.185195979704398,4.1280121200277975 L3.7117727001247482,3.983682290329587 L4.185195979704398,3.839352460631373 L4.330121333186728,3.367881405447231 L4.475039813608571,3.839352460631373 z"
          id="svg_3" stroke="null"></path>
        <path fill="#ffffff"
          d="M6.165833313215609,4.618737647892443 L7.112679872374906,4.907397307288867 L6.165833313215609,5.1960569666852905 L5.875982606250947,6.139005921871451 L5.586138772346772,5.1960569666852905 L4.639292213187475,4.907397307288867 L5.586138772346772,4.618737647892443 L5.875982606250947,3.67578184788841 L6.165833313215609,4.618737647892443 z"
          id="svg_4" stroke="null"></path>
        <path fill="#ffffff187fff"
          d="M9.798458846809948,9.91622968319044 L10.271882126389597,10.060559512888648 L9.798458846809948,10.204889342586862 L9.653533493327615,10.676367242588878 L9.508608139845283,10.204889342586862 L9.035184860265634,10.060559512888648 L9.508608139845283,9.91622968319044 L9.653533493327615,9.444751783188421 L9.798458846809948,9.91622968319044 z"
          id="svg_5" stroke="null"></path>
        <path fill="#ffffff"
          d="M7.5667761058579845,3.839352460631373 L8.040199385437633,3.983682290329587 L7.5667761058579845,4.1280121200277975 L7.421857625436143,4.599490020029815 L7.276932271953813,4.1280121200277975 L6.803508992374162,3.983682290329587 L7.276932271953813,3.839352460631373 L7.421857625436143,3.367881405447231 L7.5667761058579845,3.839352460631373 z"
          id="svg_6" stroke="null"></path>
        <path fill="#ffffff"
          d="M10.12611138646705,5.148232224197319 L11.07296481868684,5.4368918835937405 L10.12611138646705,5.725544698172289 L9.836260679502388,6.668500498176326 L9.546416845598216,5.725544698172289 L8.599570286438915,5.4368918835937405 L9.546416845598216,5.148232224197319 L9.836260679502388,4.205276424193283 L10.12611138646705,5.148232224197319 z"
          id="svg_7" stroke="null"></path>
        <path fill="#ffffff"
          d="M10.059373969113668,7.862134063192103 L10.532797248693317,8.006463892890313 L10.059373969113668,8.150793722588526 L9.914455488691827,8.622271622590544 L9.769530135209495,8.150793722588526 L9.296106855629844,8.006463892890313 L9.769530135209495,7.862134063192103 L9.914455488691827,7.390663008007957 L10.059373969113668,7.862134063192103 zM10.997622329600558,3.6963094566935366 L11.471045609180209,3.840639286391749 L10.997622329600558,3.9849691160899603 L10.852696976118226,4.456440171274103 L10.707778495696385,3.9849691160899603 L10.234355216116736,3.840639286391749 L10.707778495696385,3.6963094566935366 L10.852696976118226,3.2248315566915196 L10.997622329600558,3.6963094566935366 zM7.987414280878006,8.952260292312197 L8.460837560457655,9.096590122010408 L7.987414280878006,9.24091995170862 L7.842488927395676,9.712397851710639 L7.697570446973831,9.24091995170862 L7.224147167394183,9.096590122010408 L7.697570446973831,8.952260292312197 L7.842488927395676,8.480782392310179 L7.987414280878006,8.952260292312197 zM4.820830359897558,6.810948002959094 L5.294253639477205,6.9552778326573055 L4.820830359897558,7.099607662355518 L4.675905006415226,7.57107871753966 L4.5309865259933835,7.099607662355518 L4.057556373353246,6.9552778326573055 L4.5309865259933835,6.810948002959094 L4.675905006415226,6.339470102957077 L4.820830359897558,6.810948002959094 z"
          id="svg_8" stroke="null"></path>
        <path fill="#ffffff187fff"
          d="M3.608924222959349,7.39494101917942 L4.082347502538998,7.53927084887763 L3.608924222959349,7.683600678575839 L3.4640057425375064,8.155078578577859 L3.3190803890551748,7.683600678575839 L2.8456571094755256,7.53927084887763 L3.3190803890551748,7.39494101917942 L3.4640057425375064,6.923463119177402 L3.608924222959349,7.39494101917942 zM6.775508143939797,10.353846269168123 L7.248931423519446,10.498176098866335 L6.775508143939797,10.642505928564546 L6.630589663517955,11.113983828566564 L6.485664310035624,10.642505928564546 L6.012241030455974,10.498176098866335 L6.485664310035624,10.353846269168123 L6.630589663517955,9.882368369166107 L6.775508143939797,10.353846269168123 zM9.121125608626778,3.4627095122782574 L9.594548888206427,3.607039341976469 L9.121125608626778,3.75136917167468 L8.976207128204935,4.222847071676699 L8.831281774722603,3.75136917167468 L8.357858495142954,3.607039341976469 L8.831281774722603,3.4627095122782574 L8.976207128204935,2.9912316122762412 L9.121125608626778,3.4627095122782574 z"
          id="svg_9" stroke="null"></path>
      </g>
    </g>
  </svg>
